<svg width="16" height="16" viewBox="0 0 16 16" fill="none" xmlns="http://www.w3.org/2000/svg">
<path d="M12.8838 3.85189C13.3332 4.52449 13.3332 5.4608 13.3332 7.33341C13.3332 9.20603 13.3332 10.1423 12.8838 10.8149C12.6892 11.1061 12.4392 11.3561 12.148 11.5507C11.5605 11.9433 10.7716 11.9929 9.33317 11.9992V12.0001L8.59612 13.4742C8.35044 13.9655 7.64924 13.9655 7.40355 13.4742L6.6665 12.0001V11.9992C5.22804 11.9929 4.43922 11.9433 3.85165 11.5507C3.56048 11.3561 3.31047 11.1061 3.11592 10.8149C2.6665 10.1423 2.6665 9.20603 2.6665 7.33341C2.6665 5.4608 2.6665 4.52449 3.11592 3.85189C3.31047 3.56072 3.56048 3.31072 3.85165 3.11616C4.52425 2.66675 5.46055 2.66675 7.33317 2.66675H8.6665C10.5391 2.66675 11.4754 2.66675 12.148 3.11616C12.4392 3.31072 12.6892 3.56072 12.8838 3.85189Z" stroke="#B792BE" stroke-width="1.5" stroke-linecap="round" stroke-linejoin="round"/>
<path d="M6 6L10 6" stroke="#B792BE" stroke-width="1.5" stroke-linecap="round" stroke-linejoin="round"/>
<path d="M6 8.66675H8" stroke="#B792BE" stroke-width="1.5" stroke-linecap="round" stroke-linejoin="round"/>
</svg>
