<svg width="20" height="20" viewBox="0 0 20 20" fill="none" xmlns="http://www.w3.org/2000/svg">
<mask id="path-1-outside-1_49_263" maskUnits="userSpaceOnUse" x="2.1665" y="3" width="14" height="15" fill="black">
<rect fill="white" x="2.1665" y="3" width="14" height="15"/>
<path d="M11.2498 6.25L5.39155 12.1083C5.1969 12.3029 5.09958 12.4003 5.0326 12.5186C4.96563 12.6368 4.93224 12.7704 4.86548 13.0374L4.36862 15.0249C4.27836 15.3859 4.23323 15.5664 4.33332 15.6665C4.43341 15.7666 4.61392 15.7215 4.97495 15.6312L4.97496 15.6312L6.96241 15.1344C7.22947 15.0676 7.363 15.0342 7.48129 14.9672C7.59958 14.9003 7.6969 14.8029 7.89155 14.6083L13.7498 8.75L13.7498 8.74999C14.2584 8.24147 14.5126 7.98721 14.569 7.68139C14.5912 7.56147 14.5912 7.43853 14.569 7.31861C14.5126 7.01279 14.2584 6.75853 13.7498 6.25C13.2413 5.74147 12.987 5.48721 12.6812 5.4308C12.5613 5.40868 12.4384 5.40868 12.3185 5.4308C12.0126 5.48721 11.7584 5.74147 11.2498 6.25Z"/>
</mask>
<path d="M5.39155 12.1083L6.45221 13.1689L6.45221 13.1689L5.39155 12.1083ZM11.2498 6.25L10.1892 5.18934L10.1892 5.18934L11.2498 6.25ZM13.7498 8.75L14.8105 9.81066L14.8417 9.77949L14.871 9.74654L13.7498 8.75ZM7.89155 14.6083L8.95221 15.6689H8.95221L7.89155 14.6083ZM4.86548 13.0374L3.41027 12.6736H3.41027L4.86548 13.0374ZM4.36862 15.0249L5.82383 15.3887L4.36862 15.0249ZM4.97496 15.6312L4.61115 14.176L4.5458 14.1923L4.48218 14.2145L4.97496 15.6312ZM6.96241 15.1344L7.32621 16.5896H7.32621L6.96241 15.1344ZM4.33332 15.6665L5.39398 14.6059L5.39398 14.6059L4.33332 15.6665ZM4.97495 15.6312L5.33874 17.0864L5.4041 17.0701L5.46773 17.048L4.97495 15.6312ZM7.48129 14.9672L8.22033 16.2725L8.22033 16.2725L7.48129 14.9672ZM13.7498 6.25L12.6892 7.31066V7.31066L13.7498 6.25ZM14.569 7.31861L13.0939 7.59069V7.5907L14.569 7.31861ZM13.7498 8.74999L12.6892 7.68933L12.658 7.7205L12.6287 7.75345L13.7498 8.74999ZM14.569 7.68139L13.0939 7.4093V7.40931L14.569 7.68139ZM12.3185 5.4308L12.0464 3.95568L12.3185 5.4308ZM12.6812 5.4308L12.9533 3.95568L12.9533 3.95568L12.6812 5.4308ZM5.0326 12.5186L3.7273 11.7795L3.7273 11.7795L5.0326 12.5186ZM6.45221 13.1689L12.3105 7.31066L10.1892 5.18934L4.33089 11.0476L6.45221 13.1689ZM12.6892 7.68934L6.83089 13.5476L8.95221 15.6689L14.8105 9.81066L12.6892 7.68934ZM3.41027 12.6736L2.9134 14.6611L5.82383 15.3887L6.32069 13.4012L3.41027 12.6736ZM5.33876 17.0864L7.32621 16.5896L6.59861 13.6791L4.61115 14.176L5.33876 17.0864ZM2.9134 14.6611C2.8805 14.7927 2.8102 15.0574 2.78671 15.2975C2.76141 15.5562 2.74451 16.199 3.27266 16.7272L5.39398 14.6059C5.58698 14.7989 5.69732 15.0282 5.74569 15.2383C5.78759 15.4204 5.77576 15.5559 5.77246 15.5896C5.76877 15.6273 5.76471 15.6362 5.77537 15.5881C5.78548 15.5425 5.7998 15.4848 5.82383 15.3887L2.9134 14.6611ZM4.48218 14.2145L4.48217 14.2145L5.46773 17.048L5.46774 17.048L4.48218 14.2145ZM4.61115 14.176C4.51503 14.2 4.45731 14.2144 4.4117 14.2245C4.36364 14.2351 4.37251 14.2311 4.41025 14.2274C4.44394 14.2241 4.57947 14.2122 4.76151 14.2541C4.97164 14.3025 5.20098 14.4129 5.39398 14.6059L3.27266 16.7272C3.8008 17.2553 4.44366 17.2384 4.70232 17.2131C4.94243 17.1896 5.20715 17.1193 5.33874 17.0864L4.61115 14.176ZM6.83089 13.5476C6.78063 13.5979 6.7441 13.6344 6.71257 13.6653C6.6813 13.6959 6.66421 13.7118 6.65501 13.7201C6.64657 13.7277 6.6523 13.722 6.66835 13.7099C6.68609 13.6967 6.71126 13.6795 6.74224 13.6619L8.22033 16.2725C8.55676 16.0821 8.81387 15.8073 8.95221 15.6689L6.83089 13.5476ZM7.32621 16.5896C7.51602 16.5421 7.88391 16.463 8.22033 16.2725L6.74224 13.6619C6.77323 13.6444 6.8009 13.6316 6.82142 13.6233C6.84 13.6157 6.84783 13.6137 6.83698 13.6171C6.82516 13.6207 6.8027 13.6271 6.76036 13.6382C6.71766 13.6494 6.66756 13.6619 6.59861 13.6791L7.32621 16.5896ZM12.6892 7.31066C12.8194 7.44087 12.9191 7.54071 13.0029 7.6279C13.0869 7.71527 13.1354 7.76992 13.1642 7.80548C13.2212 7.87576 13.1299 7.78589 13.0939 7.59069L16.0442 7.04653C15.9517 6.54552 15.7051 6.1756 15.4937 5.91516C15.2989 5.67511 15.0421 5.42098 14.8105 5.18934L12.6892 7.31066ZM14.871 9.74654L14.871 9.74654L12.6287 7.75345L12.6287 7.75345L14.871 9.74654ZM14.8105 9.81065C15.0421 9.57902 15.299 9.32489 15.4937 9.08484C15.7051 8.8244 15.9517 8.45448 16.0442 7.95347L13.0939 7.40931C13.1299 7.21411 13.2212 7.12424 13.1642 7.19452C13.1354 7.23008 13.0869 7.28472 13.0029 7.37209C12.9191 7.45929 12.8194 7.55913 12.6892 7.68933L14.8105 9.81065ZM13.0939 7.5907C13.0829 7.53074 13.0829 7.46926 13.0939 7.4093L16.0442 7.95347C16.0994 7.65368 16.0994 7.34632 16.0442 7.04653L13.0939 7.5907ZM12.3105 7.31066C12.4407 7.18045 12.5405 7.0807 12.6277 6.9969C12.7151 6.91293 12.7698 6.86448 12.8053 6.83562C12.8756 6.77859 12.7857 6.86992 12.5905 6.90592L12.0464 3.95568C11.5454 4.04809 11.1754 4.29476 10.915 4.50609C10.6749 4.70089 10.4208 4.9577 10.1892 5.18934L12.3105 7.31066ZM14.8105 5.18934C14.5789 4.9577 14.3247 4.70089 14.0847 4.50609C13.8242 4.29476 13.4543 4.04809 12.9533 3.95568L12.4091 6.90592C12.214 6.86992 12.1241 6.77859 12.1944 6.83562C12.2299 6.86448 12.2846 6.91293 12.3719 6.9969C12.4591 7.0807 12.559 7.18045 12.6892 7.31066L14.8105 5.18934ZM12.5905 6.90592C12.5306 6.91698 12.4691 6.91698 12.4091 6.90592L12.9533 3.95568C12.6535 3.90039 12.3462 3.90039 12.0464 3.95568L12.5905 6.90592ZM4.33089 11.0476C4.19255 11.186 3.91778 11.4431 3.7273 11.7795L6.3379 13.2576C6.32036 13.2886 6.30318 13.3138 6.28989 13.3315C6.27786 13.3475 6.27216 13.3533 6.27975 13.3448C6.28802 13.3356 6.30396 13.3185 6.33457 13.2873C6.36545 13.2557 6.40195 13.2192 6.45221 13.1689L4.33089 11.0476ZM6.32069 13.4012C6.33793 13.3323 6.35048 13.2822 6.36163 13.2395C6.37269 13.1971 6.37914 13.1747 6.38278 13.1629C6.38611 13.152 6.38414 13.1598 6.37656 13.1784C6.36819 13.1989 6.35544 13.2266 6.3379 13.2576L3.7273 11.7795C3.53682 12.1159 3.45772 12.4838 3.41027 12.6736L6.32069 13.4012Z" fill="#838383" mask="url(#path-1-outside-1_49_263)"/>
<path d="M10.4165 6.25L13.7498 9.58333" stroke="#838383" stroke-width="1.5"/>
</svg>
