<svg width="32" height="32" viewBox="0 0 32 32" fill="none" xmlns="http://www.w3.org/2000/svg">
    <path fill-rule="evenodd" clip-rule="evenodd"
        d="M16 27.3332C22.6274 27.3332 28 21.7851 28 17.9998C28 14.2145 22.6274 8.6665 16 8.6665C9.37258 8.6665 4 14.2184 4 17.9998C4 21.7813 9.37258 27.3332 16 27.3332Z"
        stroke="#DEDCDC" stroke-width="2" stroke-linejoin="round" />
    <path
        d="M16 22C18.2091 22 20 20.2091 20 18C20 15.7909 18.2091 14 16 14C13.7909 14 12 15.7909 12 18C12 20.2091 13.7909 22 16 22Z"
        stroke="#DEDCDC" stroke-width="2" stroke-linejoin="round" />
    <path d="M8.84277 7.51074L10.5725 9.92422" stroke="#DEDCDC" stroke-width="2"
        stroke-linecap="round" />
    <path d="M23.75 7.80688L22.0203 10.2204" stroke="#DEDCDC" stroke-width="2"
        stroke-linecap="round" />
    <path d="M16.0059 4.6665V8.6665" stroke="#DEDCDC" stroke-width="2" stroke-linecap="round" />
</svg>
    