<svg width="75" height="42" viewBox="0 0 75 42" fill="none" xmlns="http://www.w3.org/2000/svg">
<g filter="url(#filter0_f_429_876)">
<ellipse cx="26.4841" cy="20.9161" rx="11.7751" ry="6.06597" fill="url(#paint0_linear_429_876)" fill-opacity="0.6"/>
</g>
<path d="M30.5856 23V13.3212H27.2935V11.2142H36.0999V13.3212H32.8078V23H30.5856ZM36.4363 14.9343H38.461V16.0536H38.5927C38.6914 15.8561 38.8231 15.675 38.9877 15.5104C39.1523 15.3458 39.3334 15.2032 39.5309 15.0825C39.7394 14.9617 39.9589 14.8685 40.1893 14.8026C40.4308 14.7368 40.6667 14.7039 40.8971 14.7039C41.1825 14.7039 41.4239 14.7313 41.6214 14.7862C41.8299 14.841 42.0055 14.9124 42.1481 15.0002L41.572 16.959C41.4403 16.8931 41.2922 16.8437 41.1276 16.8108C40.974 16.7669 40.7819 16.745 40.5515 16.745C40.2552 16.745 39.9863 16.8053 39.7449 16.926C39.5035 17.0358 39.295 17.1949 39.1194 17.4034C38.9548 17.6119 38.8231 17.8588 38.7243 18.1441C38.6366 18.4185 38.5927 18.7202 38.5927 19.0495V23H36.4363V14.9343ZM45.8352 22.6049L42.4443 14.9343H44.8969L46.9381 19.8231H47.0533L49.0121 14.9343H51.4153L46.3619 26.5555H44.041L45.8352 22.6049ZM55.4312 23.2634C54.9045 23.2634 54.4326 23.1975 54.0156 23.0658C53.6096 22.9342 53.2529 22.7641 52.9457 22.5556C52.6494 22.3361 52.397 22.0892 52.1885 21.8148C51.98 21.5295 51.8208 21.2442 51.7111 20.9589L53.637 20.1359C53.8236 20.5529 54.0705 20.8656 54.3777 21.0741C54.696 21.2716 55.0471 21.3704 55.4312 21.3704C55.8263 21.3704 56.139 21.2991 56.3695 21.1564C56.5999 21.0138 56.7151 20.8437 56.7151 20.6461C56.7151 20.4267 56.6164 20.2511 56.4188 20.1194C56.2323 19.9767 55.9031 19.8505 55.4312 19.7408L54.2954 19.4939C54.043 19.439 53.7797 19.3512 53.5053 19.2305C53.2419 19.1098 53.0005 18.9562 52.781 18.7696C52.5616 18.5831 52.3805 18.3581 52.2378 18.0947C52.0952 17.8314 52.0239 17.5241 52.0239 17.173C52.0239 16.7779 52.1062 16.4267 52.2708 16.1195C52.4463 15.8122 52.6823 15.5543 52.9786 15.3458C53.2749 15.1263 53.6205 14.9617 54.0156 14.852C54.4216 14.7313 54.8551 14.6709 55.316 14.6709C56.0841 14.6709 56.77 14.8246 57.3736 15.1318C57.9771 15.4281 58.4215 15.9055 58.7069 16.5639L56.8468 17.3211C56.6932 17.0029 56.4682 16.7724 56.1719 16.6298C55.8756 16.4871 55.5793 16.4158 55.2831 16.4158C54.9758 16.4158 54.7069 16.4816 54.4765 16.6133C54.246 16.734 54.1308 16.8931 54.1308 17.0906C54.1308 17.2772 54.2241 17.4253 54.4106 17.5351C54.6082 17.6448 54.8715 17.7436 55.2008 17.8314L56.4353 18.1277C57.2583 18.3252 57.8674 18.6434 58.2624 19.0824C58.6685 19.5104 58.8715 20.0206 58.8715 20.6132C58.8715 20.9644 58.7892 21.2991 58.6246 21.6173C58.46 21.9355 58.224 22.2209 57.9168 22.4733C57.6205 22.7147 57.2583 22.9067 56.8304 23.0494C56.4134 23.192 55.947 23.2634 55.4312 23.2634ZM61.0034 16.7779H59.5878V14.9343H61.0034V12.4652H63.1597V14.9343H65.135V16.7779H63.1597V19.9054C63.1597 20.092 63.1762 20.2675 63.2091 20.4321C63.253 20.5858 63.3298 20.7175 63.4395 20.8272C63.5932 21.0028 63.8126 21.0906 64.098 21.0906C64.2845 21.0906 64.4327 21.0741 64.5424 21.0412C64.6521 20.9973 64.7564 20.9424 64.8551 20.8766L65.4642 22.7696C65.2118 22.8903 64.9375 22.9781 64.6412 23.0329C64.3558 23.0988 64.0376 23.1317 63.6864 23.1317C63.2804 23.1317 62.9128 23.0713 62.5836 22.9506C62.2653 22.8189 61.9965 22.6434 61.777 22.4239C61.2613 21.9301 61.0034 21.2277 61.0034 20.3169V16.7779ZM70.0753 23.2634C69.5486 23.2634 69.0767 23.1975 68.6597 23.0658C68.2537 22.9342 67.8971 22.7641 67.5898 22.5556C67.2935 22.3361 67.0411 22.0892 66.8326 21.8148C66.6241 21.5295 66.465 21.2442 66.3552 20.9589L68.2811 20.1359C68.4677 20.5529 68.7146 20.8656 69.0219 21.0741C69.3401 21.2716 69.6913 21.3704 70.0753 21.3704C70.4704 21.3704 70.7831 21.2991 71.0136 21.1564C71.244 21.0138 71.3593 20.8437 71.3593 20.6461C71.3593 20.4267 71.2605 20.2511 71.063 20.1194C70.8764 19.9767 70.5472 19.8505 70.0753 19.7408L68.9396 19.4939C68.6872 19.439 68.4238 19.3512 68.1495 19.2305C67.8861 19.1098 67.6447 18.9562 67.4252 18.7696C67.2057 18.5831 67.0246 18.3581 66.882 18.0947C66.7393 17.8314 66.668 17.5241 66.668 17.173C66.668 16.7779 66.7503 16.4267 66.9149 16.1195C67.0905 15.8122 67.3264 15.5543 67.6227 15.3458C67.919 15.1263 68.2647 14.9617 68.6597 14.852C69.0658 14.7313 69.4992 14.6709 69.9601 14.6709C70.7283 14.6709 71.4141 14.8246 72.0177 15.1318C72.6212 15.4281 73.0657 15.9055 73.351 16.5639L71.491 17.3211C71.3373 17.0029 71.1124 16.7724 70.8161 16.6298C70.5198 16.4871 70.2235 16.4158 69.9272 16.4158C69.6199 16.4158 69.3511 16.4816 69.1206 16.6133C68.8902 16.734 68.775 16.8931 68.775 17.0906C68.775 17.2772 68.8682 17.4253 69.0548 17.5351C69.2523 17.6448 69.5157 17.7436 69.8449 17.8314L71.0794 18.1277C71.9025 18.3252 72.5115 18.6434 72.9066 19.0824C73.3126 19.5104 73.5156 20.0206 73.5156 20.6132C73.5156 20.9644 73.4333 21.2991 73.2687 21.6173C73.1041 21.9355 72.8682 22.2209 72.5609 22.4733C72.2646 22.7147 71.9025 22.9067 71.4745 23.0494C71.0575 23.192 70.5911 23.2634 70.0753 23.2634Z" fill="white"/>
<path d="M19.943 11.7943L20.6603 12.5116C23.1385 14.9899 23.1385 19.0079 20.6603 21.4861L19.943 22.2034C18.8513 23.2951 17.0813 23.2951 15.9896 22.2034L12.7618 18.9756C11.6701 17.8839 11.6701 16.1139 12.7618 15.0221L15.9896 11.7943C17.0813 10.7026 18.8513 10.7026 19.943 11.7943Z" stroke="url(#paint1_linear_429_876)" stroke-width="2.52423"/>
<defs>
<filter id="filter0_f_429_876" x="0.43611" y="0.577223" width="52.096" height="40.6776" filterUnits="userSpaceOnUse" color-interpolation-filters="sRGB">
<feFlood flood-opacity="0" result="BackgroundImageFix"/>
<feBlend mode="normal" in="SourceGraphic" in2="BackgroundImageFix" result="shape"/>
<feGaussianBlur stdDeviation="7.13644" result="effect1_foregroundBlur_429_876"/>
</filter>
<linearGradient id="paint0_linear_429_876" x1="15" y1="21" x2="35.5" y2="21" gradientUnits="userSpaceOnUse">
<stop stop-color="#FF938A"/>
<stop offset="0.473958" stop-color="#FF6E88"/>
</linearGradient>
<linearGradient id="paint1_linear_429_876" x1="24.5" y1="17" x2="9" y2="17" gradientUnits="userSpaceOnUse">
<stop stop-color="#FF91A5"/>
<stop offset="0.53125" stop-color="#FF6F88"/>
<stop offset="1" stop-color="#FF938A"/>
</linearGradient>
</defs>
</svg>
