<svg width="16" height="16" viewBox="0 0 16 16" fill="none" xmlns="http://www.w3.org/2000/svg">
<path d="M7.99967 14.6666C9.84062 14.6666 11.5073 13.9204 12.7137 12.714C13.9201 11.5075 14.6663 9.84087 14.6663 7.99992C14.6663 6.15897 13.9201 4.4923 12.7137 3.28587C11.5073 2.07944 9.84062 1.33325 7.99967 1.33325C6.15873 1.33325 4.49206 2.07944 3.28563 3.28587C2.0792 4.4923 1.33301 6.15897 1.33301 7.99992C1.33301 9.84087 2.0792 11.5075 3.28563 12.714C4.49206 13.9204 6.15873 14.6666 7.99967 14.6666Z" stroke="#696969" stroke-width="1.5" stroke-linejoin="round"/>
<path d="M8 9.54159V8.20825C9.10457 8.20825 10 7.31282 10 6.20825C10 5.10368 9.10457 4.20825 8 4.20825C6.89543 4.20825 6 5.10368 6 6.20825" stroke="#696969" stroke-width="1.5" stroke-linecap="round" stroke-linejoin="round"/>
<path fill-rule="evenodd" clip-rule="evenodd" d="M8.00033 12.5417C8.46056 12.5417 8.83366 12.1686 8.83366 11.7083C8.83366 11.2481 8.46056 10.875 8.00033 10.875C7.54009 10.875 7.16699 11.2481 7.16699 11.7083C7.16699 12.1686 7.54009 12.5417 8.00033 12.5417Z" fill="#696969"/>
</svg>
