<svg width="16" height="16" viewBox="0 0 16 16" fill="none" xmlns="http://www.w3.org/2000/svg">
<path d="M8.00016 14.6666C9.84111 14.6666 11.5078 13.9204 12.7142 12.714C13.9206 11.5075 14.6668 9.84087 14.6668 7.99992C14.6668 6.15897 13.9206 4.4923 12.7142 3.28587C11.5078 2.07944 9.84111 1.33325 8.00016 1.33325C6.15921 1.33325 4.49255 2.07944 3.28612 3.28587C2.07969 4.4923 1.3335 6.15897 1.3335 7.99992C1.3335 9.84087 2.07969 11.5075 3.28612 12.714C4.49255 13.9204 6.15921 14.6666 8.00016 14.6666Z" stroke="white" stroke-width="1.5" stroke-linejoin="round"/>
<path fill-rule="evenodd" clip-rule="evenodd" d="M7.99984 3.66659C8.46007 3.66659 8.83317 4.03968 8.83317 4.49992C8.83317 4.96016 8.46007 5.33325 7.99984 5.33325C7.5396 5.33325 7.1665 4.96016 7.1665 4.49992C7.1665 4.03968 7.5396 3.66659 7.99984 3.66659Z" fill="white"/>
<path d="M8.16667 11.3333V6.66659H7.83333H7.5" stroke="white" stroke-width="1.5" stroke-linecap="round" stroke-linejoin="round"/>
<path d="M7 11.3333H9.33333" stroke="white" stroke-width="1.5" stroke-linecap="round" stroke-linejoin="round"/>
</svg>
