<svg width="20" height="20" viewBox="0 0 20 20" fill="none" xmlns="http://www.w3.org/2000/svg">
<path d="M3.75 7.33565C3.75 6.85948 3.75 6.6214 3.80409 6.39358C3.82285 6.31454 3.84641 6.23671 3.87465 6.16054C3.95602 5.94098 4.08808 5.74288 4.35221 5.34669V5.34669C4.81195 4.65708 5.04182 4.31228 5.36899 4.09169C5.48164 4.01574 5.60174 3.95147 5.72741 3.89987C6.09244 3.75 6.50684 3.75 7.33565 3.75H12.6644C13.4932 3.75 13.9076 3.75 14.2726 3.89987C14.3983 3.95147 14.5184 4.01574 14.631 4.09169C14.9582 4.31228 15.1881 4.65708 15.6478 5.34669V5.34669C15.9119 5.74288 16.044 5.94098 16.1254 6.16054C16.1536 6.23671 16.1771 6.31454 16.1959 6.39358C16.25 6.6214 16.25 6.85948 16.25 7.33565V12.25C16.25 14.1356 16.25 15.0784 15.6642 15.6642C15.0784 16.25 14.1356 16.25 12.25 16.25H7.75C5.86438 16.25 4.92157 16.25 4.33579 15.6642C3.75 15.0784 3.75 14.1356 3.75 12.25V7.33565Z" stroke="#838383" stroke-width="1.5"/>
<path d="M3.75 7.91663H16.25" stroke="#838383" stroke-width="1.5" stroke-linecap="round"/>
<path d="M7.9165 8.06663C7.9165 7.98378 7.98366 7.91663 8.0665 7.91663H11.9332C12.016 7.91663 12.0832 7.98378 12.0832 8.06663V11.2885C12.0832 11.6383 11.7016 11.8543 11.4016 11.6744L10.1285 10.9105C10.0493 10.863 9.95038 10.863 9.87121 10.9105L8.59803 11.6744C8.29809 11.8543 7.9165 11.6383 7.9165 11.2885V8.06663Z" stroke="#838383" stroke-width="1.5"/>
</svg>
