<svg width="64" height="18" viewBox="0 0 64 18" fill="none" xmlns="http://www.w3.org/2000/svg">
    <path
        d="M20.5856 14V4.32117H17.2935V2.21422H26.0999V4.32117H22.8078V14H20.5856ZM26.4363 5.93431H28.461V7.05363H28.5927C28.6914 6.8561 28.8231 6.67504 28.9877 6.51043C29.1523 6.34582 29.3334 6.20317 29.5309 6.08245C29.7394 5.96174 29.9589 5.86847 30.1893 5.80262C30.4308 5.73678 30.6667 5.70386 30.8971 5.70386C31.1825 5.70386 31.4239 5.7313 31.6214 5.78616C31.8299 5.84103 32.0055 5.91236 32.1481 6.00015L31.572 7.95896C31.4403 7.89312 31.2922 7.84374 31.1276 7.81082C30.974 7.76692 30.7819 7.74497 30.5515 7.74497C30.2552 7.74497 29.9863 7.80533 29.7449 7.92604C29.5035 8.03578 29.295 8.1949 29.1194 8.4034C28.9548 8.6119 28.8231 8.85881 28.7243 9.14413C28.6366 9.41847 28.5927 9.72025 28.5927 10.0495V14H26.4363V5.93431ZM35.8352 13.6049L32.4443 5.93431H34.8969L36.9381 10.8231H37.0533L39.0121 5.93431H41.4153L36.3619 17.5555H34.041L35.8352 13.6049ZM45.4312 14.2634C44.9045 14.2634 44.4326 14.1975 44.0156 14.0658C43.6096 13.9342 43.2529 13.7641 42.9457 13.5556C42.6494 13.3361 42.397 13.0892 42.1885 12.8148C41.98 12.5295 41.8208 12.2442 41.7111 11.9589L43.637 11.1359C43.8236 11.5529 44.0705 11.8656 44.3777 12.0741C44.696 12.2716 45.0471 12.3704 45.4312 12.3704C45.8263 12.3704 46.139 12.2991 46.3695 12.1564C46.5999 12.0138 46.7151 11.8437 46.7151 11.6461C46.7151 11.4267 46.6164 11.2511 46.4188 11.1194C46.2323 10.9767 45.9031 10.8505 45.4312 10.7408L44.2954 10.4939C44.043 10.439 43.7797 10.3512 43.5053 10.2305C43.2419 10.1098 43.0005 9.95618 42.781 9.76963C42.5616 9.58307 42.3805 9.35811 42.2378 9.09474C42.0952 8.83137 42.0239 8.52411 42.0239 8.17295C42.0239 7.7779 42.1062 7.42674 42.2708 7.11947C42.4463 6.81221 42.6823 6.55433 42.9786 6.34582C43.2749 6.12635 43.6205 5.96174 44.0156 5.85201C44.4216 5.7313 44.8551 5.67094 45.316 5.67094C46.0841 5.67094 46.77 5.82457 47.3736 6.13184C47.9771 6.42813 48.4215 6.90548 48.7069 7.56391L46.8468 8.3211C46.6932 8.00286 46.4682 7.77241 46.1719 7.62975C45.8756 7.48709 45.5793 7.41576 45.2831 7.41576C44.9758 7.41576 44.7069 7.48161 44.4765 7.61329C44.246 7.734 44.1308 7.89312 44.1308 8.09065C44.1308 8.2772 44.2241 8.42535 44.4106 8.53508C44.6082 8.64482 44.8715 8.74358 45.2008 8.83137L46.4353 9.12766C47.2583 9.32519 47.8674 9.64343 48.2624 10.0824C48.6685 10.5104 48.8715 11.0206 48.8715 11.6132C48.8715 11.9644 48.7892 12.2991 48.6246 12.6173C48.46 12.9355 48.224 13.2209 47.9168 13.4733C47.6205 13.7147 47.2583 13.9067 46.8304 14.0494C46.4134 14.192 45.947 14.2634 45.4312 14.2634ZM51.0034 7.7779H49.5878V5.93431H51.0034V3.46522H53.1597V5.93431H55.135V7.7779H53.1597V10.9054C53.1597 11.092 53.1762 11.2675 53.2091 11.4321C53.253 11.5858 53.3298 11.7175 53.4395 11.8272C53.5932 12.0028 53.8126 12.0906 54.098 12.0906C54.2845 12.0906 54.4327 12.0741 54.5424 12.0412C54.6521 11.9973 54.7564 11.9424 54.8551 11.8766L55.4642 13.7696C55.2118 13.8903 54.9375 13.9781 54.6412 14.0329C54.3558 14.0988 54.0376 14.1317 53.6864 14.1317C53.2804 14.1317 52.9128 14.0713 52.5836 13.9506C52.2653 13.8189 51.9965 13.6434 51.777 13.4239C51.2613 12.9301 51.0034 12.2277 51.0034 11.3169V7.7779ZM60.0753 14.2634C59.5486 14.2634 59.0767 14.1975 58.6597 14.0658C58.2537 13.9342 57.8971 13.7641 57.5898 13.5556C57.2935 13.3361 57.0411 13.0892 56.8326 12.8148C56.6241 12.5295 56.465 12.2442 56.3552 11.9589L58.2811 11.1359C58.4677 11.5529 58.7146 11.8656 59.0219 12.0741C59.3401 12.2716 59.6913 12.3704 60.0753 12.3704C60.4704 12.3704 60.7831 12.2991 61.0136 12.1564C61.244 12.0138 61.3593 11.8437 61.3593 11.6461C61.3593 11.4267 61.2605 11.2511 61.063 11.1194C60.8764 10.9767 60.5472 10.8505 60.0753 10.7408L58.9396 10.4939C58.6872 10.439 58.4238 10.3512 58.1495 10.2305C57.8861 10.1098 57.6447 9.95618 57.4252 9.76963C57.2057 9.58307 57.0246 9.35811 56.882 9.09474C56.7393 8.83137 56.668 8.52411 56.668 8.17295C56.668 7.7779 56.7503 7.42674 56.9149 7.11947C57.0905 6.81221 57.3264 6.55433 57.6227 6.34582C57.919 6.12635 58.2647 5.96174 58.6597 5.85201C59.0658 5.7313 59.4992 5.67094 59.9601 5.67094C60.7283 5.67094 61.4141 5.82457 62.0177 6.13184C62.6212 6.42813 63.0657 6.90548 63.351 7.56391L61.491 8.3211C61.3373 8.00286 61.1124 7.77241 60.8161 7.62975C60.5198 7.48709 60.2235 7.41576 59.9272 7.41576C59.6199 7.41576 59.3511 7.48161 59.1206 7.61329C58.8902 7.734 58.775 7.89312 58.775 8.09065C58.775 8.2772 58.8682 8.42535 59.0548 8.53508C59.2523 8.64482 59.5157 8.74358 59.8449 8.83137L61.0794 9.12766C61.9025 9.32519 62.5115 9.64343 62.9066 10.0824C63.3126 10.5104 63.5156 11.0206 63.5156 11.6132C63.5156 11.9644 63.4333 12.2991 63.2687 12.6173C63.1041 12.9355 62.8682 13.2209 62.5609 13.4733C62.2646 13.7147 61.9025 13.9067 61.4745 14.0494C61.0575 14.192 60.5911 14.2634 60.0753 14.2634Z"
        fill="white" />
    <path
        d="M9.94302 2.79433L10.6603 3.51162C13.1385 5.98986 13.1385 10.0079 10.6603 12.4861L9.94302 13.2034C8.85131 14.2951 7.0813 14.2951 5.98959 13.2034L2.76178 9.97557C1.67007 8.88386 1.67007 7.11385 2.76178 6.02214L5.9896 2.79433C7.0813 1.70262 8.85131 1.70262 9.94302 2.79433Z"
        stroke="url(#paint0_linear_0_1)" stroke-width="2.52423" />
    <defs>
        <linearGradient id="paint0_linear_0_1" x1="14.5" y1="8" x2="-1" y2="8"
            gradientUnits="userSpaceOnUse">
            <stop stop-color="#FF91A5" />
            <stop offset="0.53125" stop-color="#FF6F88" />
            <stop offset="1" stop-color="#FF938A" />
        </linearGradient>
    </defs>
</svg>
