<svg width="65" height="19" viewBox="0 0 65 19" fill="none" xmlns="http://www.w3.org/2000/svg">
    <path d="M21.5856 14.9672V5.28835H18.2935V3.1814H27.0999V5.28835H23.8078V14.9672H21.5856Z"
        fill="white" />
    <path
        d="M27.4363 6.90149H29.4609V8.02081H29.5926C29.6914 7.82328 29.8231 7.64222 29.9877 7.47761C30.1523 7.313 30.3334 7.17035 30.5309 7.04964C30.7394 6.92892 30.9589 6.83565 31.1893 6.76981C31.4307 6.70396 31.6667 6.67104 31.8971 6.67104C32.1824 6.67104 32.4238 6.69848 32.6214 6.75335C32.8299 6.80821 33.0055 6.87954 33.1481 6.96733L32.572 8.92614C32.4403 8.8603 32.2922 8.81092 32.1276 8.778C31.9739 8.7341 31.7819 8.71215 31.5514 8.71215C31.2551 8.71215 30.9863 8.77251 30.7449 8.89322C30.5034 9.00296 30.2949 9.16208 30.1194 9.37058C29.9548 9.57908 29.8231 9.82599 29.7243 10.1113C29.6365 10.3856 29.5926 10.6874 29.5926 11.0166V14.9672H27.4363V6.90149Z"
        fill="white" />
    <path
        d="M36.8352 14.5721L33.4443 6.90149H35.8969L37.938 11.7903H38.0532L40.0121 6.90149H42.4153L37.3619 18.5227H35.041L36.8352 14.5721Z"
        fill="white" />
    <path
        d="M46.4312 15.2305C45.9044 15.2305 45.4326 15.1647 45.0156 15.033C44.6095 14.9013 44.2529 14.7312 43.9456 14.5227C43.6493 14.3033 43.3969 14.0564 43.1884 13.782C42.9799 13.4967 42.8208 13.2114 42.7111 12.9261L44.637 12.103C44.8235 12.52 45.0704 12.8328 45.3777 13.0413C45.6959 13.2388 46.0471 13.3376 46.4312 13.3376C46.8262 13.3376 47.139 13.2663 47.3694 13.1236C47.5999 12.9809 47.7151 12.8108 47.7151 12.6133C47.7151 12.3938 47.6163 12.2183 47.4188 12.0866C47.2323 11.9439 46.903 11.8177 46.4312 11.708L45.2954 11.4611C45.043 11.4062 44.7796 11.3184 44.5053 11.1977C44.2419 11.077 44.0005 10.9234 43.781 10.7368C43.5615 10.5503 43.3805 10.3253 43.2378 10.0619C43.0952 9.79855 43.0238 9.49129 43.0238 9.14013C43.0238 8.74508 43.1061 8.39392 43.2707 8.08665C43.4463 7.77939 43.6822 7.52151 43.9785 7.313C44.2748 7.09353 44.6205 6.92892 45.0156 6.81919C45.4216 6.69848 45.855 6.63812 46.3159 6.63812C47.0841 6.63812 47.77 6.79175 48.3735 7.09902C48.9771 7.39531 49.4215 7.87266 49.7068 8.53109L47.8468 9.28828C47.6931 8.97004 47.4682 8.73959 47.1719 8.59693C46.8756 8.45427 46.5793 8.38294 46.283 8.38294C45.9758 8.38294 45.7069 8.44879 45.4765 8.58047C45.246 8.70118 45.1308 8.8603 45.1308 9.05783C45.1308 9.24438 45.2241 9.39253 45.4106 9.50226C45.6081 9.612 45.8715 9.71076 46.2007 9.79855L47.4353 10.0948C48.2583 10.2924 48.8673 10.6106 49.2624 11.0496C49.6684 11.4775 49.8714 11.9878 49.8714 12.5804C49.8714 12.9316 49.7891 13.2663 49.6245 13.5845C49.4599 13.9027 49.224 14.188 48.9167 14.4404C48.6204 14.6819 48.2583 14.8739 47.8303 15.0166C47.4133 15.1592 46.9469 15.2305 46.4312 15.2305Z"
        fill="white" />
    <path
        d="M52.0033 8.74508H50.5877V6.90149H52.0033V4.4324H54.1597V6.90149H56.1349V8.74508H54.1597V11.8726C54.1597 12.0591 54.1761 12.2347 54.2091 12.3993C54.2529 12.553 54.3298 12.6846 54.4395 12.7944C54.5931 12.97 54.8126 13.0578 55.0979 13.0578C55.2845 13.0578 55.4326 13.0413 55.5424 13.0084C55.6521 12.9645 55.7564 12.9096 55.8551 12.8438L56.4642 14.7367C56.2118 14.8574 55.9374 14.9452 55.6411 15.0001C55.3558 15.0659 55.0376 15.0989 54.6864 15.0989C54.2804 15.0989 53.9128 15.0385 53.5835 14.9178C53.2653 14.7861 52.9965 14.6105 52.777 14.3911C52.2612 13.8972 52.0033 13.1949 52.0033 12.2841V8.74508Z"
        fill="white" />
    <path
        d="M61.0753 15.2305C60.5486 15.2305 60.0767 15.1647 59.6597 15.033C59.2537 14.9013 58.897 14.7312 58.5898 14.5227C58.2935 14.3033 58.0411 14.0564 57.8326 13.782C57.6241 13.4967 57.465 13.2114 57.3552 12.9261L59.2811 12.103C59.4677 12.52 59.7146 12.8328 60.0218 13.0413C60.3401 13.2388 60.6912 13.3376 61.0753 13.3376C61.4704 13.3376 61.7831 13.2663 62.0136 13.1236C62.244 12.9809 62.3592 12.8108 62.3592 12.6133C62.3592 12.3938 62.2605 12.2183 62.0629 12.0866C61.8764 11.9439 61.5472 11.8177 61.0753 11.708L59.9395 11.4611C59.6871 11.4062 59.4238 11.3184 59.1494 11.1977C58.886 11.077 58.6446 10.9234 58.4252 10.7368C58.2057 10.5503 58.0246 10.3253 57.882 10.0619C57.7393 9.79855 57.668 9.49129 57.668 9.14013C57.668 8.74508 57.7503 8.39392 57.9149 8.08665C58.0905 7.77939 58.3264 7.52151 58.6227 7.313C58.919 7.09353 59.2646 6.92892 59.6597 6.81919C60.0657 6.69848 60.4992 6.63812 60.9601 6.63812C61.7282 6.63812 62.4141 6.79175 63.0177 7.09902C63.6212 7.39531 64.0657 7.87266 64.351 8.53109L62.4909 9.28828C62.3373 8.97004 62.1123 8.73959 61.816 8.59693C61.5197 8.45427 61.2235 8.38294 60.9272 8.38294C60.6199 8.38294 60.351 8.44879 60.1206 8.58047C59.8901 8.70118 59.7749 8.8603 59.7749 9.05783C59.7749 9.24438 59.8682 9.39253 60.0548 9.50226C60.2523 9.612 60.5156 9.71076 60.8449 9.79855L62.0794 10.0948C62.9024 10.2924 63.5115 10.6106 63.9065 11.0496C64.3126 11.4775 64.5156 11.9878 64.5156 12.5804C64.5156 12.9316 64.4333 13.2663 64.2687 13.5845C64.1041 13.9027 63.8681 14.188 63.5609 14.4404C63.2646 14.6819 62.9024 14.8739 62.4745 15.0166C62.0575 15.1592 61.5911 15.2305 61.0753 15.2305Z"
        fill="white" />
    <path fill-rule="evenodd" clip-rule="evenodd"
        d="M10.7679 5.37136L10.0506 4.65407C9.45175 4.05524 8.48087 4.05524 7.88205 4.65406L4.65423 7.88188C4.05541 8.4807 4.05541 9.45159 4.65423 10.0504L7.88204 13.2782C8.48087 13.877 9.45175 13.877 10.0506 13.2782L10.7679 12.5609C12.7532 10.5756 12.7532 7.3567 10.7679 5.37136ZM11.8355 2.86917C10.2509 1.28457 7.68174 1.28457 6.09715 2.86916L2.86933 6.09698C1.28474 7.68157 1.28473 10.2507 2.86933 11.8353L6.09714 15.0631C7.68174 16.6477 10.2509 16.6477 11.8355 15.0631L12.5528 14.3458C15.5239 11.3747 15.5239 6.55758 12.5528 3.58646L11.8355 2.86917Z"
        fill="url(#paint0_linear_465_970)" />
    <defs>
        <linearGradient id="paint0_linear_465_970" x1="15.5" y1="8.96728" x2="1.75902e-07"
            y2="8.96728" gradientUnits="userSpaceOnUse">
            <stop stop-color="#FF91A5" />
            <stop offset="0.53125" stop-color="#FF6F88" />
            <stop offset="1" stop-color="#FF938A" />
        </linearGradient>
    </defs>
</svg>
    