<svg width="16" height="16" viewBox="0 0 16 16" fill="none" xmlns="http://www.w3.org/2000/svg">
<path d="M6.33333 6.66667C7.622 6.66667 8.66667 5.622 8.66667 4.33333C8.66667 3.04467 7.622 2 6.33333 2C5.04467 2 4 3.04467 4 4.33333C4 5.622 5.04467 6.66667 6.33333 6.66667Z" stroke="#B792BE" stroke-width="1.5" stroke-linecap="round" stroke-linejoin="round"/>
<path d="M10.8691 2.33325C11.5468 2.74155 11.9999 3.48448 11.9999 4.33325C11.9999 5.18203 11.5468 5.92495 10.8691 6.33325" stroke="#B792BE" stroke-width="1.5" stroke-linecap="round" stroke-linejoin="round"/>
<path d="M6.66683 9.33325H6.00016C3.42283 9.33325 1.3335 11.4226 1.3335 13.9999H11.3335C11.3335 11.4226 9.24416 9.33325 6.66683 9.33325Z" stroke="#B792BE" stroke-width="1.5" stroke-linecap="round" stroke-linejoin="round"/>
<path d="M14.6665 14V13.6C14.6665 12.1066 14.6665 11.3598 14.3758 10.7894C14.1202 10.2876 13.7122 9.87969 13.2104 9.62402" stroke="#B792BE" stroke-width="1.5" stroke-linecap="round" stroke-linejoin="round"/>
</svg>
