<svg width="438" height="297" viewBox="0 0 438 297" fill="none" xmlns="http://www.w3.org/2000/svg">
    <path fill-rule="evenodd" clip-rule="evenodd"
        class="multitab-border"
        d="M24 11C24 6.58172 27.5817 3 32 3H116C119.437 3 122.368 5.16736 123.5 8.20988C124.632 5.16736 127.563 3 131 3H218C222.418 3 226 6.58172 226 11V22.5H416C427.874 22.5 437.5 32.1259 437.5 44V275C437.5 286.874 427.874 296.5 416 296.5H22C10.1259 296.5 0.5 286.874 0.5 275V44C0.5 32.1259 10.1259 22.5 22 22.5H24V11ZM223 25V22.5V11C223 8.23858 220.761 6 218 6H131C128.239 6 126 8.23857 126 11V22.5V25V25.5H22C11.7827 25.5 3.5 33.7827 3.5 44V275C3.5 285.217 11.7827 293.5 22 293.5H416C426.217 293.5 434.5 285.217 434.5 275V44C434.5 33.7827 426.217 25.5 416 25.5H223V25Z"
        fill="#C771E1" />
    <path
        d="M47.5874 17.9998V12.1846H45.6094V10.9187H50.9004V12.1846H48.9225V17.9998H47.5874ZM51.1026 13.1538H52.319V13.8263H52.3981C52.4574 13.7076 52.5366 13.5988 52.6355 13.4999C52.7344 13.401 52.8431 13.3153 52.9618 13.2428C53.0871 13.1703 53.219 13.1142 53.3574 13.0747C53.5025 13.0351 53.6442 13.0153 53.7827 13.0153C53.9541 13.0153 54.0991 13.0318 54.2178 13.0648C54.3431 13.0977 54.4486 13.1406 54.5343 13.1933L54.1882 14.3702C54.109 14.3307 54.02 14.301 53.9211 14.2812C53.8288 14.2548 53.7134 14.2417 53.575 14.2417C53.397 14.2417 53.2354 14.2779 53.0904 14.3504C52.9453 14.4164 52.8201 14.512 52.7146 14.6372C52.6157 14.7625 52.5366 14.9109 52.4772 15.0823C52.4245 15.2471 52.3981 15.4284 52.3981 15.6262V17.9998H51.1026V13.1538ZM56.7495 17.7624L54.7122 13.1538H56.1858L57.4121 16.091H57.4814L58.6582 13.1538H60.1021L57.066 20.1359H55.6715L56.7495 17.7624ZM62.5149 18.158C62.1985 18.158 61.9149 18.1184 61.6644 18.0393C61.4205 17.9602 61.2062 17.858 61.0216 17.7327C60.8436 17.6009 60.6919 17.4525 60.5666 17.2877C60.4414 17.1163 60.3458 16.9449 60.2798 16.7734L61.4369 16.2789C61.549 16.5295 61.6974 16.7174 61.882 16.8427C62.0732 16.9613 62.2842 17.0207 62.5149 17.0207C62.7523 17.0207 62.9402 16.9778 63.0786 16.8921C63.2171 16.8064 63.2863 16.7042 63.2863 16.5855C63.2863 16.4537 63.227 16.3482 63.1083 16.2691C62.9962 16.1833 62.7984 16.1075 62.5149 16.0416L61.8325 15.8932C61.6809 15.8603 61.5227 15.8075 61.3578 15.735C61.1996 15.6625 61.0545 15.5702 60.9227 15.4581C60.7908 15.346 60.682 15.2108 60.5963 15.0526C60.5106 14.8944 60.4677 14.7098 60.4677 14.4988C60.4677 14.2614 60.5172 14.0505 60.6161 13.8658C60.7216 13.6812 60.8633 13.5263 61.0414 13.401C61.2194 13.2692 61.4271 13.1703 61.6644 13.1043C61.9084 13.0318 62.1688 12.9955 62.4457 12.9955C62.9072 12.9955 63.3193 13.0879 63.6819 13.2725C64.0445 13.4505 64.3116 13.7373 64.483 14.1329L63.3654 14.5878C63.2731 14.3966 63.138 14.2581 62.96 14.1724C62.7819 14.0867 62.6039 14.0439 62.4259 14.0439C62.2413 14.0439 62.0798 14.0834 61.9413 14.1625C61.8029 14.2351 61.7336 14.3307 61.7336 14.4493C61.7336 14.5614 61.7897 14.6504 61.9018 14.7164C62.0204 14.7823 62.1787 14.8416 62.3765 14.8944L63.1182 15.0724C63.6127 15.1911 63.9786 15.3823 64.216 15.646C64.4599 15.9031 64.5819 16.2097 64.5819 16.5657C64.5819 16.7767 64.5324 16.9778 64.4335 17.169C64.3346 17.3602 64.1929 17.5316 64.0083 17.6833C63.8303 17.8283 63.6127 17.9437 63.3556 18.0294C63.105 18.1151 62.8248 18.158 62.5149 18.158ZM65.8628 14.2614H65.0122V13.1538H65.8628V11.6703H67.1583V13.1538H68.3451V14.2614H67.1583V16.1405C67.1583 16.2526 67.1682 16.3581 67.188 16.457C67.2144 16.5493 67.2605 16.6284 67.3264 16.6943C67.4187 16.7998 67.5506 16.8525 67.722 16.8525C67.8341 16.8525 67.9231 16.8427 67.989 16.8229C68.055 16.7965 68.1176 16.7635 68.177 16.724L68.5429 17.8613C68.3912 17.9338 68.2264 17.9866 68.0484 18.0195C67.877 18.0591 67.6858 18.0789 67.4748 18.0789C67.2308 18.0789 67.01 18.0426 66.8122 17.9701C66.621 17.891 66.4594 17.7855 66.3276 17.6536C66.0177 17.3569 65.8628 16.935 65.8628 16.3877V14.2614ZM71.3133 18.158C70.9968 18.158 70.7133 18.1184 70.4628 18.0393C70.2188 17.9602 70.0046 17.858 69.82 17.7327C69.6419 17.6009 69.4903 17.4525 69.365 17.2877C69.2398 17.1163 69.1442 16.9449 69.0782 16.7734L70.2353 16.2789C70.3474 16.5295 70.4958 16.7174 70.6804 16.8427C70.8716 16.9613 71.0826 17.0207 71.3133 17.0207C71.5507 17.0207 71.7386 16.9778 71.877 16.8921C72.0155 16.8064 72.0847 16.7042 72.0847 16.5855C72.0847 16.4537 72.0254 16.3482 71.9067 16.2691C71.7946 16.1833 71.5968 16.1075 71.3133 16.0416L70.6309 15.8932C70.4793 15.8603 70.321 15.8075 70.1562 15.735C69.998 15.6625 69.8529 15.5702 69.7211 15.4581C69.5892 15.346 69.4804 15.2108 69.3947 15.0526C69.309 14.8944 69.2661 14.7098 69.2661 14.4988C69.2661 14.2614 69.3156 14.0505 69.4145 13.8658C69.52 13.6812 69.6617 13.5263 69.8397 13.401C70.0178 13.2692 70.2254 13.1703 70.4628 13.1043C70.7067 13.0318 70.9672 12.9955 71.2441 12.9955C71.7056 12.9955 72.1177 13.0879 72.4803 13.2725C72.8429 13.4505 73.1099 13.7373 73.2814 14.1329L72.1638 14.5878C72.0715 14.3966 71.9364 14.2581 71.7584 14.1724C71.5803 14.0867 71.4023 14.0439 71.2243 14.0439C71.0397 14.0439 70.8782 14.0834 70.7397 14.1625C70.6013 14.2351 70.532 14.3307 70.532 14.4493C70.532 14.5614 70.5881 14.6504 70.7002 14.7164C70.8188 14.7823 70.9771 14.8416 71.1749 14.8944L71.9166 15.0724C72.4111 15.1911 72.777 15.3823 73.0143 15.646C73.2583 15.9031 73.3803 16.2097 73.3803 16.5657C73.3803 16.7767 73.3308 16.9778 73.2319 17.169C73.133 17.3602 72.9913 17.5316 72.8067 17.6833C72.6286 17.8283 72.4111 17.9437 72.1539 18.0294C71.9034 18.1151 71.6232 18.158 71.3133 18.158Z"
        fill="white" />
    <path
        d="M36.5753 11.8801L37.0063 12.3111C38.4952 13.8001 38.4952 16.2141 37.0063 17.7031L36.5753 18.134C35.9194 18.79 34.856 18.79 34.2001 18.134L32.2607 16.1947C31.6048 15.5388 31.6048 14.4754 32.2607 13.8195L34.2001 11.8801C34.856 11.2242 35.9194 11.2242 36.5753 11.8801Z"
        stroke="url(#paint0_linear_0_1)" stroke-width="1.51659" />
    <path
        d="M147.588 19.9995V14.1843H145.61V12.9185H150.901V14.1843H148.923V19.9995H147.588ZM151.104 15.1535H152.32V15.826H152.399C152.458 15.7074 152.538 15.5986 152.636 15.4997C152.735 15.4008 152.844 15.3151 152.963 15.2425C153.088 15.17 153.22 15.114 153.358 15.0744C153.503 15.0349 153.645 15.0151 153.784 15.0151C153.955 15.0151 154.1 15.0316 154.219 15.0645C154.344 15.0975 154.45 15.1404 154.535 15.1931L154.189 16.37C154.11 16.3304 154.021 16.3007 153.922 16.281C153.83 16.2546 153.714 16.2414 153.576 16.2414C153.398 16.2414 153.236 16.2777 153.091 16.3502C152.946 16.4161 152.821 16.5117 152.716 16.637C152.617 16.7623 152.538 16.9106 152.478 17.082C152.425 17.2469 152.399 17.4282 152.399 17.626V19.9995H151.104V15.1535ZM156.75 19.7622L154.713 15.1535H156.187L157.413 18.0908H157.482L158.659 15.1535H160.103L157.067 22.1357H155.673L156.75 19.7622ZM162.516 20.1577C162.199 20.1577 161.916 20.1182 161.665 20.0391C161.421 19.96 161.207 19.8578 161.023 19.7325C160.845 19.6006 160.693 19.4523 160.568 19.2875C160.442 19.116 160.347 18.9446 160.281 18.7732L161.438 18.2787C161.55 18.5292 161.698 18.7171 161.883 18.8424C162.074 18.9611 162.285 19.0204 162.516 19.0204C162.753 19.0204 162.941 18.9776 163.08 18.8919C163.218 18.8062 163.287 18.704 163.287 18.5853C163.287 18.4534 163.228 18.3479 163.109 18.2688C162.997 18.1831 162.799 18.1073 162.516 18.0413L161.834 17.893C161.682 17.86 161.524 17.8073 161.359 17.7348C161.201 17.6622 161.056 17.5699 160.924 17.4578C160.792 17.3458 160.683 17.2106 160.597 17.0524C160.512 16.8941 160.469 16.7095 160.469 16.4985C160.469 16.2612 160.518 16.0502 160.617 15.8656C160.723 15.681 160.864 15.5261 161.042 15.4008C161.22 15.2689 161.428 15.17 161.665 15.1041C161.909 15.0316 162.17 14.9953 162.447 14.9953C162.908 14.9953 163.32 15.0876 163.683 15.2722C164.046 15.4502 164.313 15.737 164.484 16.1326L163.366 16.5876C163.274 16.3964 163.139 16.2579 162.961 16.1722C162.783 16.0865 162.605 16.0436 162.427 16.0436C162.242 16.0436 162.081 16.0832 161.942 16.1623C161.804 16.2348 161.735 16.3304 161.735 16.4491C161.735 16.5612 161.791 16.6502 161.903 16.7161C162.021 16.7821 162.18 16.8414 162.377 16.8941L163.119 17.0721C163.614 17.1908 163.98 17.382 164.217 17.6458C164.461 17.9029 164.583 18.2095 164.583 18.5655C164.583 18.7765 164.533 18.9776 164.435 19.1688C164.336 19.36 164.194 19.5314 164.009 19.683C163.831 19.8281 163.614 19.9435 163.357 20.0292C163.106 20.1149 162.826 20.1577 162.516 20.1577ZM165.864 16.2612H165.013V15.1535H165.864V13.6701H167.159V15.1535H168.346V16.2612H167.159V18.1402C167.159 18.2523 167.169 18.3578 167.189 18.4567C167.215 18.549 167.261 18.6281 167.327 18.6941C167.42 18.7996 167.552 18.8523 167.723 18.8523C167.835 18.8523 167.924 18.8424 167.99 18.8226C168.056 18.7963 168.119 18.7633 168.178 18.7237L168.544 19.8611C168.392 19.9336 168.227 19.9863 168.049 20.0193C167.878 20.0589 167.687 20.0786 167.476 20.0786C167.232 20.0786 167.011 20.0424 166.813 19.9698C166.622 19.8907 166.46 19.7852 166.329 19.6534C166.019 19.3567 165.864 18.9347 165.864 18.3875V16.2612ZM171.314 20.1577C170.998 20.1577 170.714 20.1182 170.464 20.0391C170.22 19.96 170.006 19.8578 169.821 19.7325C169.643 19.6006 169.491 19.4523 169.366 19.2875C169.241 19.116 169.145 18.9446 169.079 18.7732L170.236 18.2787C170.348 18.5292 170.497 18.7171 170.681 18.8424C170.873 18.9611 171.084 19.0204 171.314 19.0204C171.552 19.0204 171.74 18.9776 171.878 18.8919C172.016 18.8062 172.086 18.704 172.086 18.5853C172.086 18.4534 172.026 18.3479 171.908 18.2688C171.796 18.1831 171.598 18.1073 171.314 18.0413L170.632 17.893C170.48 17.86 170.322 17.8073 170.157 17.7348C169.999 17.6622 169.854 17.5699 169.722 17.4578C169.59 17.3458 169.481 17.2106 169.396 17.0524C169.31 16.8941 169.267 16.7095 169.267 16.4985C169.267 16.2612 169.317 16.0502 169.415 15.8656C169.521 15.681 169.663 15.5261 169.841 15.4008C170.019 15.2689 170.226 15.17 170.464 15.1041C170.708 15.0316 170.968 14.9953 171.245 14.9953C171.707 14.9953 172.119 15.0876 172.481 15.2722C172.844 15.4502 173.111 15.737 173.282 16.1326L172.165 16.5876C172.073 16.3964 171.937 16.2579 171.759 16.1722C171.581 16.0865 171.403 16.0436 171.225 16.0436C171.041 16.0436 170.879 16.0832 170.741 16.1623C170.602 16.2348 170.533 16.3304 170.533 16.4491C170.533 16.5612 170.589 16.6502 170.701 16.7161C170.82 16.7821 170.978 16.8414 171.176 16.8941L171.918 17.0721C172.412 17.1908 172.778 17.382 173.015 17.6458C173.259 17.9029 173.381 18.2095 173.381 18.5655C173.381 18.7765 173.332 18.9776 173.233 19.1688C173.134 19.36 172.992 19.5314 172.808 19.683C172.63 19.8281 172.412 19.9435 172.155 20.0292C171.904 20.1149 171.624 20.1577 171.314 20.1577Z"
        fill="white" />
    <path
        d="M136.576 13.8799L137.007 14.3109C138.496 15.7998 138.496 18.2139 137.007 19.7028L136.576 20.1338C135.92 20.7897 134.857 20.7897 134.201 20.1338L132.262 18.1945C131.606 17.5386 131.606 16.4751 132.262 15.8192L134.201 13.8799C134.857 13.224 135.92 13.224 136.576 13.8799Z"
        stroke="url(#paint1_linear_0_1)" stroke-width="1.51659" />
    <circle cx="220" cy="9" r="9" fill="#FC677B" />
    <path fill-rule="evenodd" clip-rule="evenodd"
        d="M219.293 9.00003L217.147 11.1464L217.854 11.8535L220 9.70714L222.146 11.8536L222.853 11.1465L220.707 9.00003L222.853 6.85358L222.146 6.14648L220 8.29292L217.854 6.1466L217.147 6.85371L219.293 9.00003Z"
        fill="white" />
    <defs>
        <linearGradient id="paint0_linear_0_1" x1="41" y1="15" x2="30" y2="15"
            gradientUnits="userSpaceOnUse">
            <stop stop-color="#FF91A5" />
            <stop offset="0.484375" stop-color="#FF6F88" />
        </linearGradient>
        <linearGradient id="paint1_linear_0_1" x1="141.001" y1="16.9998" x2="130.001" y2="16.9998"
            gradientUnits="userSpaceOnUse">
            <stop stop-color="#FF91A5" />
            <stop offset="0.484375" stop-color="#FF6F88" />
        </linearGradient>
    </defs>
</svg>
    