<svg width="16" height="16" viewBox="0 0 16 16" fill="none" xmlns="http://www.w3.org/2000/svg">
<path d="M2 4.66663H3.18656C3.66712 4.66663 3.9074 4.66663 4.12299 4.69007C5.56571 4.84696 6.81029 5.77297 7.37513 7.10977C7.45954 7.30952 7.52858 7.53967 7.66667 7.99996V7.99996C7.80475 8.46025 7.8738 8.6904 7.9582 8.89015C8.52304 10.227 9.76762 11.153 11.2103 11.3098C11.4259 11.3333 11.6662 11.3333 12.1468 11.3333H14M14 11.3333L12 9.33329M14 11.3333L12 13.3333" stroke="white"/>
<path fill-rule="evenodd" clip-rule="evenodd" d="M5.78039 10.1409C5.28844 10.5071 4.70037 10.7441 4.06893 10.8128C3.88684 10.8326 3.67914 10.8333 3.18656 10.8333H2V11.8333H3.18656H3.22168C3.66887 11.8333 3.93425 11.8334 4.17704 11.807C4.94897 11.723 5.67047 11.4433 6.28327 11.0113C6.09489 10.7368 5.92648 10.4461 5.78039 10.1409ZM9.55295 5.85907C10.0449 5.49289 10.633 5.25585 11.2644 5.18718C11.4465 5.16738 11.6542 5.16666 12.1468 5.16666H12.7929L11.6464 6.31311L12.3536 7.02022L14.3536 5.02022L14.7071 4.66666L14.3536 4.31311L12.3536 2.31311L11.6464 3.02022L12.7929 4.16666H12.1468L12.1117 4.16666C11.6645 4.16665 11.3991 4.16664 11.1563 4.19304C10.3844 4.27698 9.66286 4.55665 9.05006 4.98865C9.23844 5.26319 9.40686 5.55391 9.55295 5.85907Z" fill="white"/>
</svg>
