<svg width="16" height="16" viewBox="0 0 16 16" fill="none" xmlns="http://www.w3.org/2000/svg">
<path d="M6.09476 14.3903C4.97774 14.0577 3.98344 13.4403 3.19612 12.6222C3.48982 12.2741 3.66683 11.8243 3.66683 11.3332C3.66683 10.2286 2.7714 9.33321 1.66683 9.33321C1.60001 9.33321 1.53396 9.33649 1.46883 9.34289C1.38009 8.90908 1.3335 8.45992 1.3335 7.99988C1.3335 7.303 1.44042 6.6311 1.63876 5.99969C1.6481 5.99982 1.65746 5.99988 1.66683 5.99988C2.7714 5.99988 3.66683 5.10445 3.66683 3.99988C3.66683 3.68279 3.59303 3.38293 3.46168 3.11654C4.23267 2.39967 5.17367 1.86318 6.21751 1.57422C6.54829 2.22257 7.22238 2.66655 8.00016 2.66655C8.77795 2.66655 9.45203 2.22257 9.78281 1.57422C10.8267 1.86318 11.7677 2.39967 12.5386 3.11654C12.4073 3.38293 12.3335 3.68279 12.3335 3.99988C12.3335 5.10445 13.2289 5.99988 14.3335 5.99988C14.3429 5.99988 14.3522 5.99982 14.3616 5.99969C14.5599 6.6311 14.6668 7.303 14.6668 7.99988C14.6668 8.45992 14.6202 8.90908 14.5315 9.34289C14.4664 9.33649 14.4003 9.33321 14.3335 9.33321C13.2289 9.33321 12.3335 10.2286 12.3335 11.3332C12.3335 11.8243 12.5105 12.2741 12.8042 12.6222C12.0169 13.4403 11.0226 14.0577 9.90556 14.3903C9.64776 13.5838 8.89216 12.9999 8.00016 12.9999C7.10817 12.9999 6.35256 13.5838 6.09476 14.3903Z" stroke="#B792BE" stroke-width="1.5" stroke-linejoin="round"/>
<path d="M8.00033 10.3332C9.28899 10.3332 10.3337 9.2885 10.3337 7.99984C10.3337 6.71117 9.28899 5.6665 8.00033 5.6665C6.71166 5.6665 5.66699 6.71117 5.66699 7.99984C5.66699 9.2885 6.71166 10.3332 8.00033 10.3332Z" stroke="#B792BE" stroke-width="1.5" stroke-linejoin="round"/>
</svg>
