<svg width="41" height="52" viewBox="0 0 41 52" fill="none" xmlns="http://www.w3.org/2000/svg">
<g clip-path="url(#clip0_755_1020)">
<path d="M21.0028 22.6666L21 16.6666" stroke="#E8E8E8" stroke-width="2" stroke-linecap="round" stroke-linejoin="round"/>
<path d="M26.5061 20.4387C27.6016 19.6684 28.0714 18.2768 27.6669 17C27.2624 15.7233 26.0237 15.0238 24.6844 15.0249H23.9107C23.405 13.0538 21.7362 11.5986 19.7147 11.3658C17.6931 11.1329 15.7372 12.1706 14.7966 13.9751C13.856 15.7796 14.1253 17.9773 15.4739 19.5012" stroke="#E8E8E8" stroke-width="2" stroke-linecap="round" stroke-linejoin="round"/>
<path d="M23.1216 18.212L21.0002 16.0907L18.8789 18.212" stroke="#E8E8E8" stroke-width="2" stroke-linecap="round" stroke-linejoin="round"/>
</g>
<path d="M7.956 40.384H6.132V45.76C6.132 46.828 5.616 47.548 4.416 47.548C3.204 47.548 2.688 46.828 2.688 45.76V40.384H0.864V45.724C0.864 47.764 2.136 49.18 4.416 49.18C6.66 49.18 7.956 47.764 7.956 45.724V40.384ZM15.9525 45.796C15.9525 43.912 14.8365 42.472 13.1085 42.472C12.2925 42.472 11.5845 42.844 11.0925 43.528V42.592H9.5565V51.316H11.2245V48.172C11.7045 48.796 12.3525 49.12 13.1085 49.12C14.8365 49.12 15.9525 47.692 15.9525 45.796ZM14.2365 45.796C14.2365 47.02 13.5525 47.632 12.7365 47.632C11.9205 47.632 11.2365 47.008 11.2365 45.796C11.2365 44.584 11.9205 43.948 12.7365 43.948C13.5525 43.948 14.2365 44.596 14.2365 45.796ZM18.7013 49V40.384H17.0213V49H18.7013ZM23.0291 49.12C24.8891 49.12 26.2811 47.656 26.2811 45.796C26.2811 43.924 24.8891 42.472 23.0291 42.472C21.1691 42.472 19.7771 43.924 19.7771 45.796C19.7771 47.656 21.1691 49.12 23.0291 49.12ZM23.0291 47.644C22.2011 47.644 21.4931 46.984 21.4931 45.796C21.4931 44.608 22.2011 43.96 23.0291 43.96C23.8571 43.96 24.5651 44.608 24.5651 45.796C24.5651 46.984 23.8571 47.644 23.0291 47.644ZM31.1616 49H32.5176V44.968C32.5176 43.396 31.5336 42.472 29.8536 42.472C28.3056 42.472 27.2376 43.432 27.1416 44.908H28.6416C28.7016 44.188 29.1336 43.768 29.8536 43.768C30.5496 43.768 30.9576 44.188 30.9576 44.908V45.292C30.5616 45.244 30.2496 45.22 29.8896 45.22C28.0176 45.22 27.0096 45.892 27.0096 47.14C27.0096 48.34 27.8976 49.12 29.2296 49.12C30.1056 49.12 30.7416 48.808 31.1616 48.208V49ZM28.5816 47.092C28.5816 46.516 29.0496 46.216 29.9976 46.216C30.2856 46.216 30.5616 46.24 30.9576 46.3V46.756C30.9576 47.5 30.4416 47.968 29.5896 47.968C28.9656 47.968 28.5816 47.632 28.5816 47.092ZM33.5349 45.796C33.5349 47.668 34.6509 49.12 36.3789 49.12C37.2069 49.12 37.9029 48.748 38.4069 48.076V49H39.9309V40.384H38.2749V43.42C37.7949 42.808 37.1469 42.472 36.3789 42.472C34.6509 42.472 33.5349 43.9 33.5349 45.796ZM35.2509 45.796C35.2509 44.572 35.9349 43.948 36.7509 43.948C37.5669 43.948 38.2629 44.56 38.2629 45.772C38.2629 46.984 37.5789 47.632 36.7509 47.632C35.9349 47.632 35.2509 46.996 35.2509 45.796Z" fill="#E8E8E8"/>
<circle cx="21" cy="17" r="16" stroke="#E8E8E8" stroke-width="2" stroke-linecap="round" stroke-linejoin="round" stroke-dasharray="8 8"/>
<defs>
<clipPath id="clip0_755_1020">
<rect width="16" height="16" fill="white" transform="translate(13 9)"/>
</clipPath>
</defs>
</svg>
