<svg width="10" height="10" viewBox="0 0 10 10" fill="none" xmlns="http://www.w3.org/2000/svg">
<g clip-path="url(#clip0_1342_1453)">
<path d="M6.45841 5.00016V2.29183C6.45841 1.48641 5.8055 0.833496 5.00008 0.833496C4.19467 0.833496 3.54175 1.48641 3.54175 2.29183V5.00016C3.54175 5.80558 4.19467 6.4585 5.00008 6.4585C5.8055 6.4585 6.45841 5.80558 6.45841 5.00016Z" stroke="white" stroke-width="0.75" stroke-linejoin="round"/>
<path d="M1.875 4.79199C1.875 6.51788 3.27411 7.91699 5 7.91699C5.36525 7.91699 5.71586 7.85433 6.04167 7.73917M8.125 4.79199C8.125 5.23643 8.03222 5.6592 7.86497 6.04199" stroke="white" stroke-width="0.75" stroke-linecap="round" stroke-linejoin="round"/>
<path d="M5.00008 7.91699V9.16699" stroke="white" stroke-width="0.75" stroke-linecap="round" stroke-linejoin="round"/>
<path d="M8.75 8.75L1.25 1.25" stroke="white" stroke-width="0.75" stroke-linecap="round" stroke-linejoin="round"/>
</g>
<defs>
<clipPath id="clip0_1342_1453">
<rect width="10" height="10" fill="white"/>
</clipPath>
</defs>
</svg>
