<svg width="16" height="16" viewBox="0 0 16 16" fill="none" xmlns="http://www.w3.org/2000/svg">
<path d="M1.66683 5.33325H14.3335C14.5176 5.33325 14.6668 5.48249 14.6668 5.66659V12.9999C14.6668 13.184 14.5176 13.3333 14.3335 13.3333H10.0002L8.00294 11.3337L6.00016 13.3333H1.66683C1.48273 13.3333 1.3335 13.184 1.3335 12.9999V5.66659C1.3335 5.48249 1.48273 5.33325 1.66683 5.33325Z" stroke="#B792BE" stroke-width="1.5" stroke-linejoin="round"/>
<path d="M4.66683 10.6667C5.40321 10.6667 6.00016 10.0697 6.00016 9.33333C6.00016 8.59695 5.40321 8 4.66683 8C3.93045 8 3.3335 8.59695 3.3335 9.33333C3.3335 10.0697 3.93045 10.6667 4.66683 10.6667Z" stroke="#B792BE" stroke-width="1.5" stroke-linecap="round" stroke-linejoin="round"/>
<path d="M11.3333 10.6667C12.0697 10.6667 12.6667 10.0697 12.6667 9.33333C12.6667 8.59695 12.0697 8 11.3333 8C10.597 8 10 8.59695 10 9.33333C10 10.0697 10.597 10.6667 11.3333 10.6667Z" stroke="#B792BE" stroke-width="1.5" stroke-linecap="round" stroke-linejoin="round"/>
<path d="M2 3.33325H14" stroke="#B792BE" stroke-width="1.5" stroke-linecap="round" stroke-linejoin="round"/>
</svg>
